<svg width="1080" height="2400" viewBox="0 0 1080 2400" fill="none" xmlns="http://www.w3.org/2000/svg">
  <defs>
    <filter id="softShadowD" x="-20%" y="-20%" width="140%" height="140%">
      <feDropShadow dx="0" dy="10" stdDeviation="16" flood-color="#000000" flood-opacity="0.18"/>
    </filter>
  </defs>
  <rect width="1080" height="2400" fill="#202124"/>
  <rect x="100" y="40" width="880" height="2320" rx="92" fill="#202124" stroke="#3C4043" stroke-width="3"/>
  <rect x="420" y="78" width="240" height="30" rx="15" fill="#E8EAED"/>

  <text x="170" y="184" fill="#E8EAED" font-size="42" font-family="Roboto, Arial, sans-serif" font-weight="500">TeleDrive</text>
  <circle cx="865" cy="168" r="26" fill="#8AB4F8"/>
  <text x="865" y="177" text-anchor="middle" fill="#202124" font-size="22" font-family="Roboto, Arial, sans-serif" font-weight="700">S</text>

  <rect x="150" y="225" width="780" height="72" rx="36" fill="#303134"/>
  <circle cx="200" cy="261" r="15" stroke="#9AA0A6" stroke-width="4"/>
  <line x1="211" y1="272" x2="224" y2="285" stroke="#9AA0A6" stroke-width="4" stroke-linecap="round"/>
  <text x="245" y="269" fill="#9AA0A6" font-size="24" font-family="Roboto, Arial, sans-serif">Search in TeleDrive</text>

  <text x="150" y="360" fill="#E8EAED" font-size="26" font-family="Roboto, Arial, sans-serif" font-weight="500">Categories</text>
  <g filter="url(#softShadowD)">
    <rect x="150" y="392" width="372" height="176" rx="22" fill="#2B2C2F"/>
    <rect x="558" y="392" width="372" height="176" rx="22" fill="#2B2C2F"/>
    <rect x="150" y="594" width="372" height="176" rx="22" fill="#2B2C2F"/>
    <rect x="558" y="594" width="372" height="176" rx="22" fill="#2B2C2F"/>
  </g>

  <g font-family="Roboto, Arial, sans-serif">
    <rect x="182" y="432" width="56" height="56" rx="16" fill="#284B63"/>
    <rect x="191" y="443" width="38" height="28" rx="7" fill="#8AB4F8"/>
    <circle cx="204" cy="452" r="5" fill="#E8F0FE"/>
    <path d="M192 470L202 460L209 466L218 457L229 470H192Z" fill="#E8F0FE"/>
    <text x="260" y="456" fill="#E8EAED" font-size="28" font-weight="500">Photos</text>
    <text x="260" y="494" fill="#9AA0A6" font-size="22">1,284 files</text>

    <rect x="590" y="432" width="56" height="56" rx="16" fill="#49345A"/>
    <rect x="604" y="446" width="28" height="26" rx="6" fill="#C58AF9"/>
    <polygon points="617,453 617,466 627,459" fill="#F3E8FF"/>
    <text x="668" y="456" fill="#E8EAED" font-size="28" font-weight="500">Videos</text>
    <text x="668" y="494" fill="#9AA0A6" font-size="22">318 files</text>

    <rect x="182" y="634" width="56" height="56" rx="16" fill="#355146"/>
    <path d="M198 646H224V673H198Z" fill="#81C995"/>
    <path d="M216 646V656H224" stroke="#E6F4EA" stroke-width="3"/>
    <text x="260" y="658" fill="#E8EAED" font-size="28" font-weight="500">Files</text>
    <text x="260" y="696" fill="#9AA0A6" font-size="22">642 files</text>

    <rect x="590" y="634" width="56" height="56" rx="16" fill="#574128"/>
    <path d="M618 649C609 649 602 656 602 665C602 674 609 681 618 681C627 681 634 674 634 665V660" stroke="#FDD663" stroke-width="6" stroke-linecap="round"/>
    <text x="668" y="658" fill="#E8EAED" font-size="28" font-weight="500">Audio</text>
    <text x="668" y="696" fill="#9AA0A6" font-size="22">92 files</text>
  </g>

  <text x="150" y="850" fill="#E8EAED" font-size="26" font-family="Roboto, Arial, sans-serif" font-weight="500">All files</text>
  <rect x="150" y="885" width="780" height="64" rx="18" fill="#2B2C2F"/>
  <text x="178" y="927" fill="#9AA0A6" font-size="20" font-family="Roboto, Arial, sans-serif">Sort by</text>
  <rect x="275" y="899" width="150" height="36" rx="18" fill="#3C4043"/>
  <text x="350" y="923" fill="#E8EAED" text-anchor="middle" font-size="18" font-family="Roboto, Arial, sans-serif">Name A-Z</text>
  <rect x="440" y="899" width="150" height="36" rx="18" fill="#2B2C2F" stroke="#5F6368"/>
  <text x="515" y="923" fill="#BDc1C6" text-anchor="middle" font-size="18" font-family="Roboto, Arial, sans-serif">Name Z-A</text>
  <rect x="605" y="899" width="90" height="36" rx="18" fill="#2B2C2F" stroke="#5F6368"/>
  <text x="650" y="923" fill="#BDC1C6" text-anchor="middle" font-size="18" font-family="Roboto, Arial, sans-serif">Size</text>
  <rect x="710" y="899" width="170" height="36" rx="18" fill="#2B2C2F" stroke="#5F6368"/>
  <text x="795" y="923" fill="#BDC1C6" text-anchor="middle" font-size="18" font-family="Roboto, Arial, sans-serif">Created date</text>

  <g font-family="Roboto, Arial, sans-serif">
    <rect x="150" y="980" width="780" height="104" rx="0" fill="#202124"/>
    <line x1="150" y1="1084" x2="930" y2="1084" stroke="#3C4043"/>
    <circle cx="195" cy="1032" r="22" fill="#1F3B53"/>
    <text x="245" y="1022" fill="#E8EAED" font-size="24" font-weight="400">Brand_Guidelines.pdf</text>
    <text x="245" y="1057" fill="#9AA0A6" font-size="20">1.8 MB  •  Apr 29  •  Desktop Sync</text>
    <text x="900" y="1038" text-anchor="end" fill="#9AA0A6" font-size="28">⋮</text>

    <rect x="150" y="1084" width="780" height="104" rx="0" fill="#202124"/>
    <line x1="150" y1="1188" x2="930" y2="1188" stroke="#3C4043"/>
    <circle cx="195" cy="1136" r="22" fill="#4C355F"/>
    <text x="245" y="1126" fill="#E8EAED" font-size="24" font-weight="400">Launch_Cut.mp4</text>
    <text x="245" y="1161" fill="#9AA0A6" font-size="20">238 MB  •  Apr 28  •  Camera Uploads</text>
    <text x="900" y="1142" text-anchor="end" fill="#9AA0A6" font-size="28">⋮</text>

    <rect x="150" y="1188" width="780" height="104" rx="0" fill="#202124"/>
    <line x1="150" y1="1292" x2="930" y2="1292" stroke="#3C4043"/>
    <circle cx="195" cy="1240" r="22" fill="#355146"/>
    <text x="245" y="1230" fill="#E8EAED" font-size="24" font-weight="400">Project_Roadmap.xlsx</text>
    <text x="245" y="1265" fill="#9AA0A6" font-size="20">524 KB  •  Apr 27  •  Shared Folder</text>
    <text x="900" y="1246" text-anchor="end" fill="#9AA0A6" font-size="28">⋮</text>

    <rect x="150" y="1292" width="780" height="104" rx="0" fill="#202124"/>
    <line x1="150" y1="1396" x2="930" y2="1396" stroke="#3C4043"/>
    <circle cx="195" cy="1344" r="22" fill="#1F3B53"/>
    <text x="245" y="1334" fill="#E8EAED" font-size="24" font-weight="400">Vacation_Album.zip</text>
    <text x="245" y="1369" fill="#9AA0A6" font-size="20">84.2 MB  •  Apr 25  •  Mobile Upload</text>
    <text x="900" y="1350" text-anchor="end" fill="#9AA0A6" font-size="28">⋮</text>

    <rect x="150" y="1396" width="780" height="104" rx="0" fill="#202124"/>
    <line x1="150" y1="1500" x2="930" y2="1500" stroke="#3C4043"/>
    <circle cx="195" cy="1448" r="22" fill="#574128"/>
    <text x="245" y="1438" fill="#E8EAED" font-size="24" font-weight="400">meeting_capture.wav</text>
    <text x="245" y="1473" fill="#9AA0A6" font-size="20">48 MB  •  Apr 24  •  Synced from Mac</text>
    <text x="900" y="1454" text-anchor="end" fill="#9AA0A6" font-size="28">⋮</text>
  </g>

  <g filter="url(#softShadowD)">
    <rect x="285" y="1758" width="510" height="134" rx="24" fill="#2B2C2F"/>
  </g>
  <text x="540" y="1806" text-anchor="middle" fill="#E8EAED" font-size="24" font-family="Roboto, Arial, sans-serif" font-weight="500">Upload</text>
  <rect x="315" y="1824" width="210" height="44" rx="22" fill="#8AB4F8"/>
  <text x="420" y="1852" text-anchor="middle" fill="#202124" font-size="18" font-family="Roboto, Arial, sans-serif" font-weight="500">Selected files</text>
  <rect x="555" y="1824" width="210" height="44" rx="22" fill="#3C4043"/>
  <text x="660" y="1852" text-anchor="middle" fill="#E8EAED" font-size="18" font-family="Roboto, Arial, sans-serif" font-weight="500">Sync full storage</text>

  <circle cx="540" cy="1945" r="48" fill="#8AB4F8" filter="url(#softShadowD)"/>
  <path d="M540 1923V1967M518 1945H562" stroke="#202124" stroke-width="8" stroke-linecap="round"/>

  <rect x="150" y="2050" width="780" height="150" rx="26" fill="#2B2C2F"/>
  <g font-family="Roboto, Arial, sans-serif" font-size="20" text-anchor="middle">
    <text x="250" y="2160" fill="#8AB4F8">All files</text>
    <text x="435" y="2160" fill="#BDC1C6">Videos</text>
    <text x="635" y="2160" fill="#BDC1C6">Photos</text>
    <text x="820" y="2160" fill="#BDC1C6">Files</text>
  </g>
  <path d="M228 2114H272V2146H228Z" fill="#8AB4F8"/>
  <polygon points="420,2116 420,2148 448,2132" fill="#BDC1C6"/>
  <rect x="615" y="2118" width="40" height="28" rx="6" fill="#BDC1C6"/>
  <path d="M804 2114H836V2148H804Z" fill="#BDC1C6"/>
</svg>
