<svg width="1080" height="2400" viewBox="0 0 1080 2400" fill="none" xmlns="http://www.w3.org/2000/svg">
  <defs>
    <linearGradient id="bg1" x1="0" y1="0" x2="0" y2="1">
      <stop offset="0%" stop-color="#11131B"/>
      <stop offset="100%" stop-color="#0B0B0F"/>
    </linearGradient>
    <linearGradient id="accent1" x1="0" y1="0" x2="1" y2="1">
      <stop offset="0%" stop-color="#64A8FF"/>
      <stop offset="100%" stop-color="#9C6BFF"/>
    </linearGradient>
    <filter id="shadow" x="-20%" y="-20%" width="140%" height="140%">
      <feDropShadow dx="0" dy="22" stdDeviation="28" flood-color="#000000" flood-opacity="0.45"/>
    </filter>
    <filter id="glow" x="-40%" y="-40%" width="180%" height="180%">
      <feGaussianBlur stdDeviation="18" result="blur"/>
      <feMerge>
        <feMergeNode in="blur"/>
        <feMergeNode in="SourceGraphic"/>
      </feMerge>
    </filter>
  </defs>

  <rect width="1080" height="2400" fill="#191919"/>
  <rect x="100" y="40" width="880" height="2320" rx="92" fill="url(#bg1)" stroke="#232532" stroke-width="4"/>
  <rect x="420" y="78" width="240" height="30" rx="15" fill="#F4F4F5"/>

  <text x="180" y="200" fill="#F7F7FA" font-size="44" font-family="Inter, Arial, sans-serif" font-weight="700">TeleDrive</text>
  <text x="180" y="248" fill="#8B90A2" font-size="24" font-family="Inter, Arial, sans-serif">Cloud storage overview</text>

  <rect x="150" y="320" width="780" height="250" rx="42" fill="#121520" stroke="#242838" filter="url(#shadow)"/>
  <circle cx="250" cy="445" r="84" fill="#0D111A" stroke="#2D3245"/>
  <circle cx="250" cy="445" r="84" stroke="url(#accent1)" stroke-width="14" stroke-dasharray="360 170"/>
  <text x="217" y="438" fill="#F7F7FA" font-size="34" font-family="Inter, Arial, sans-serif" font-weight="700">78%</text>
  <text x="197" y="472" fill="#8F95AB" font-size="22" font-family="Inter, Arial, sans-serif">used</text>
  <text x="385" y="400" fill="#F7F7FA" font-size="30" font-family="Inter, Arial, sans-serif" font-weight="600">Storage</text>
  <text x="385" y="445" fill="#8F95AB" font-size="22" font-family="Inter, Arial, sans-serif">156 GB of 200 GB</text>
  <rect x="385" y="475" width="320" height="14" rx="7" fill="#1D2332"/>
  <rect x="385" y="475" width="250" height="14" rx="7" fill="url(#accent1)" filter="url(#glow)"/>
  <rect x="710" y="398" width="170" height="62" rx="31" fill="url(#accent1)" filter="url(#glow)"/>
  <text x="748" y="437" fill="#FFFFFF" font-size="24" font-family="Inter, Arial, sans-serif" font-weight="700">Sync Now</text>
  <text x="385" y="525" fill="#6EA9FF" font-size="22" font-family="Inter, Arial, sans-serif">Last sync 2 mins ago</text>

  <text x="150" y="660" fill="#F7F7FA" font-size="30" font-family="Inter, Arial, sans-serif" font-weight="600">Categories</text>

  <g filter="url(#shadow)">
    <rect x="150" y="710" width="360" height="220" rx="34" fill="#121520" stroke="#242838"/>
    <rect x="570" y="710" width="360" height="220" rx="34" fill="#121520" stroke="#242838"/>
    <rect x="150" y="970" width="360" height="220" rx="34" fill="#121520" stroke="#242838"/>
    <rect x="570" y="970" width="360" height="220" rx="34" fill="#121520" stroke="#242838"/>
  </g>

  <g>
    <rect x="188" y="760" width="72" height="72" rx="22" fill="#16233D"/>
    <rect x="196" y="772" width="56" height="40" rx="10" fill="#6EA9FF"/>
    <circle cx="214" cy="785" r="7" fill="#D7EEFF"/>
    <path d="M198 808L214 792L224 802L238 786L252 808H198Z" fill="#D7EEFF"/>
    <text x="188" y="866" fill="#F7F7FA" font-size="28" font-family="Inter, Arial, sans-serif" font-weight="600">Images</text>
    <text x="188" y="904" fill="#8F95AB" font-size="22" font-family="Inter, Arial, sans-serif">1,284 files</text>
  </g>

  <g>
    <rect x="608" y="760" width="72" height="72" rx="22" fill="#1E1C3B"/>
    <rect x="624" y="778" width="40" height="36" rx="8" fill="#A07CFF"/>
    <polygon points="642,789 642,803 654,796" fill="#F7F4FF"/>
    <text x="608" y="866" fill="#F7F7FA" font-size="28" font-family="Inter, Arial, sans-serif" font-weight="600">Videos</text>
    <text x="608" y="904" fill="#8F95AB" font-size="22" font-family="Inter, Arial, sans-serif">318 files</text>
  </g>

  <g>
    <rect x="188" y="1020" width="72" height="72" rx="22" fill="#18202C"/>
    <path d="M210 1038H248V1076H210Z" fill="#90C4FF"/>
    <path d="M238 1038V1050H248" stroke="#DCEEFF" stroke-width="4"/>
    <text x="188" y="1126" fill="#F7F7FA" font-size="28" font-family="Inter, Arial, sans-serif" font-weight="600">Documents</text>
    <text x="188" y="1164" fill="#8F95AB" font-size="22" font-family="Inter, Arial, sans-serif">642 files</text>
  </g>

  <g>
    <rect x="608" y="1020" width="72" height="72" rx="22" fill="#211C2E"/>
    <path d="M636 1042C625 1042 616 1051 616 1062C616 1073 625 1082 636 1082C647 1082 656 1073 656 1062V1056" stroke="#C3AEFF" stroke-width="7" stroke-linecap="round"/>
    <text x="608" y="1126" fill="#F7F7FA" font-size="28" font-family="Inter, Arial, sans-serif" font-weight="600">Audio</text>
    <text x="608" y="1164" fill="#8F95AB" font-size="22" font-family="Inter, Arial, sans-serif">92 files</text>
  </g>

  <text x="150" y="1280" fill="#F7F7FA" font-size="30" font-family="Inter, Arial, sans-serif" font-weight="600">Recent files</text>

  <g filter="url(#shadow)">
    <rect x="150" y="1330" width="780" height="120" rx="28" fill="#121520" stroke="#242838"/>
    <rect x="150" y="1475" width="780" height="120" rx="28" fill="#121520" stroke="#242838"/>
    <rect x="150" y="1620" width="780" height="120" rx="28" fill="#121520" stroke="#242838"/>
    <rect x="150" y="1765" width="780" height="120" rx="28" fill="#121520" stroke="#242838"/>
  </g>

  <g>
    <rect x="182" y="1360" width="58" height="58" rx="18" fill="#172A45"/>
    <text x="275" y="1385" fill="#F7F7FA" font-size="26" font-family="Inter, Arial, sans-serif" font-weight="600">Vacation_Album.zip</text>
    <text x="275" y="1420" fill="#8F95AB" font-size="20" font-family="Inter, Arial, sans-serif">84.2 MB  •  Apr 29  •  Camera Uploads</text>
  </g>
  <g>
    <rect x="182" y="1505" width="58" height="58" rx="18" fill="#231A38"/>
    <text x="275" y="1530" fill="#F7F7FA" font-size="26" font-family="Inter, Arial, sans-serif" font-weight="600">Product_demo.mp4</text>
    <text x="275" y="1565" fill="#8F95AB" font-size="20" font-family="Inter, Arial, sans-serif">412 MB  •  Apr 28  •  Desktop Sync</text>
  </g>
  <g>
    <rect x="182" y="1650" width="58" height="58" rx="18" fill="#142838"/>
    <text x="275" y="1675" fill="#F7F7FA" font-size="26" font-family="Inter, Arial, sans-serif" font-weight="600">Invoice_Q2.pdf</text>
    <text x="275" y="1710" fill="#8F95AB" font-size="20" font-family="Inter, Arial, sans-serif">1.8 MB  •  Apr 26  •  Gmail Import</text>
  </g>
  <g>
    <rect x="182" y="1795" width="58" height="58" rx="18" fill="#231E2D"/>
    <text x="275" y="1820" fill="#F7F7FA" font-size="26" font-family="Inter, Arial, sans-serif" font-weight="600">Podcast_Master.wav</text>
    <text x="275" y="1855" fill="#8F95AB" font-size="20" font-family="Inter, Arial, sans-serif">96 MB  •  Apr 24  •  Studio Mac</text>
  </g>

  <rect x="150" y="2060" width="780" height="170" rx="40" fill="#10131C" stroke="#222635"/>
  <g fill="#8F95AB" font-family="Inter, Arial, sans-serif" font-size="20" text-anchor="middle">
    <text x="230" y="2172">All Files</text>
    <text x="390" y="2172">Images</text>
    <text x="540" y="2172">Videos</text>
    <text x="700" y="2172">Docs</text>
    <text x="850" y="2172">Settings</text>
  </g>
  <circle cx="230" cy="2120" r="22" fill="url(#accent1)"/>
  <rect x="372" y="2100" width="36" height="28" rx="8" fill="#7A8096"/>
  <polygon points="530,2102 530,2132 560,2117" fill="#7A8096"/>
  <path d="M684 2098H716V2136H684Z" fill="#7A8096"/>
  <circle cx="850" cy="2117" r="18" stroke="#7A8096" stroke-width="6"/>
</svg>
