<svg width="1080" height="2400" viewBox="0 0 1080 2400" fill="none" xmlns="http://www.w3.org/2000/svg">
  <defs>
    <filter id="shadow3" x="-20%" y="-20%" width="140%" height="140%">
      <feDropShadow dx="0" dy="18" stdDeviation="20" flood-color="#000000" flood-opacity="0.45"/>
    </filter>
  </defs>

  <rect width="1080" height="2400" fill="#151515"/>
  <rect x="100" y="40" width="880" height="2320" rx="92" fill="#000000" stroke="#1A1A1E" stroke-width="3"/>
  <rect x="420" y="78" width="240" height="30" rx="15" fill="#F0F0F0"/>

  <text x="180" y="195" fill="#FFFFFF" font-size="44" font-family="Inter, Arial, sans-serif" font-weight="700">TeleDrive</text>
  <rect x="150" y="245" width="780" height="78" rx="30" fill="#0D0D10" stroke="#232327"/>
  <circle cx="200" cy="284" r="16" stroke="#888A93" stroke-width="4"/>
  <line x1="212" y1="296" x2="226" y2="310" stroke="#888A93" stroke-width="4" stroke-linecap="round"/>
  <text x="245" y="293" fill="#70737D" font-size="24" font-family="Inter, Arial, sans-serif">Search files</text>

  <g fill="#E7E7EA">
    <path d="M760 262H770V304H760Z"/>
    <path d="M743 279H787V289H743Z"/>
    <path d="M825 258H835V304H825Z"/>
    <path d="M815 294L830 309L845 294" stroke="#E7E7EA" stroke-width="8" stroke-linecap="round" stroke-linejoin="round" fill="none"/>
    <path d="M884 266H920" stroke="#E7E7EA" stroke-width="8" stroke-linecap="round"/>
    <path d="M892 284H912" stroke="#E7E7EA" stroke-width="8" stroke-linecap="round"/>
    <path d="M900 302H904" stroke="#E7E7EA" stroke-width="8" stroke-linecap="round"/>
  </g>

  <text x="150" y="390" fill="#6B6F7B" font-size="20" font-family="Inter, Arial, sans-serif" letter-spacing="2">TODAY</text>

  <g filter="url(#shadow3)">
    <rect x="150" y="425" width="780" height="118" rx="20" fill="#070707" stroke="#1F1F23"/>
    <rect x="150" y="558" width="780" height="118" rx="20" fill="#070707" stroke="#1F1F23"/>
    <rect x="150" y="691" width="780" height="118" rx="20" fill="#070707" stroke="#1F1F23"/>
  </g>
  <g>
    <rect x="182" y="457" width="54" height="54" rx="14" fill="#101826"/>
    <text x="270" y="477" fill="#FFFFFF" font-size="26" font-family="Inter, Arial, sans-serif" font-weight="600">IMG_4821.HEIC</text>
    <text x="270" y="512" fill="#8C909A" font-size="20" font-family="Inter, Arial, sans-serif">4.8 MB</text>
    <text x="820" y="498" fill="#4DA3FF" font-size="20" font-family="Inter, Arial, sans-serif" text-anchor="end">11:42 AM</text>
  </g>
  <g>
    <rect x="182" y="590" width="54" height="54" rx="14" fill="#171717"/>
    <text x="270" y="610" fill="#FFFFFF" font-size="26" font-family="Inter, Arial, sans-serif" font-weight="600">Wireframes_v7.fig</text>
    <text x="270" y="645" fill="#8C909A" font-size="20" font-family="Inter, Arial, sans-serif">12.4 MB</text>
    <text x="820" y="631" fill="#4DA3FF" font-size="20" font-family="Inter, Arial, sans-serif" text-anchor="end">9:18 AM</text>
  </g>
  <g>
    <rect x="182" y="723" width="54" height="54" rx="14" fill="#161616"/>
    <text x="270" y="743" fill="#FFFFFF" font-size="26" font-family="Inter, Arial, sans-serif" font-weight="600">voice_note_12.m4a</text>
    <text x="270" y="778" fill="#8C909A" font-size="20" font-family="Inter, Arial, sans-serif">8.2 MB</text>
    <text x="820" y="764" fill="#4DA3FF" font-size="20" font-family="Inter, Arial, sans-serif" text-anchor="end">8:03 AM</text>
  </g>

  <text x="150" y="900" fill="#6B6F7B" font-size="20" font-family="Inter, Arial, sans-serif" letter-spacing="2">THIS WEEK</text>

  <g filter="url(#shadow3)">
    <rect x="150" y="935" width="780" height="118" rx="20" fill="#070707" stroke="#1F1F23"/>
    <rect x="150" y="1068" width="780" height="118" rx="20" fill="#070707" stroke="#1F1F23"/>
    <rect x="150" y="1201" width="780" height="118" rx="20" fill="#070707" stroke="#1F1F23"/>
    <rect x="150" y="1334" width="780" height="118" rx="20" fill="#070707" stroke="#1F1F23"/>
  </g>
  <g>
    <rect x="182" y="967" width="54" height="54" rx="14" fill="#121212"/>
    <text x="270" y="987" fill="#FFFFFF" font-size="26" font-family="Inter, Arial, sans-serif" font-weight="600">Receipt_April.pdf</text>
    <text x="270" y="1022" fill="#8C909A" font-size="20" font-family="Inter, Arial, sans-serif">1.1 MB</text>
    <text x="820" y="1008" fill="#7C808A" font-size="20" font-family="Inter, Arial, sans-serif" text-anchor="end">Apr 29</text>
  </g>
  <g>
    <rect x="182" y="1100" width="54" height="54" rx="14" fill="#101826"/>
    <text x="270" y="1120" fill="#FFFFFF" font-size="26" font-family="Inter, Arial, sans-serif" font-weight="600">cover_export.png</text>
    <text x="270" y="1155" fill="#8C909A" font-size="20" font-family="Inter, Arial, sans-serif">6.7 MB</text>
    <text x="820" y="1141" fill="#7C808A" font-size="20" font-family="Inter, Arial, sans-serif" text-anchor="end">Apr 28</text>
  </g>
  <g>
    <rect x="182" y="1233" width="54" height="54" rx="14" fill="#121212"/>
    <text x="270" y="1253" fill="#FFFFFF" font-size="26" font-family="Inter, Arial, sans-serif" font-weight="600">Roadmap_2026.xlsx</text>
    <text x="270" y="1288" fill="#8C909A" font-size="20" font-family="Inter, Arial, sans-serif">524 KB</text>
    <text x="820" y="1274" fill="#7C808A" font-size="20" font-family="Inter, Arial, sans-serif" text-anchor="end">Apr 27</text>
  </g>
  <g>
    <rect x="182" y="1366" width="54" height="54" rx="14" fill="#121212"/>
    <text x="270" y="1386" fill="#FFFFFF" font-size="26" font-family="Inter, Arial, sans-serif" font-weight="600">Launch_Cut.mp4</text>
    <text x="270" y="1421" fill="#8C909A" font-size="20" font-family="Inter, Arial, sans-serif">238 MB</text>
    <text x="820" y="1407" fill="#7C808A" font-size="20" font-family="Inter, Arial, sans-serif" text-anchor="end">Apr 26</text>
  </g>

  <text x="150" y="1545" fill="#6B6F7B" font-size="20" font-family="Inter, Arial, sans-serif" letter-spacing="2">OLDER</text>

  <g filter="url(#shadow3)">
    <rect x="150" y="1580" width="780" height="118" rx="20" fill="#070707" stroke="#1F1F23"/>
    <rect x="150" y="1713" width="780" height="118" rx="20" fill="#070707" stroke="#1F1F23"/>
    <rect x="150" y="1846" width="780" height="118" rx="20" fill="#070707" stroke="#1F1F23"/>
  </g>
  <g>
    <rect x="182" y="1612" width="54" height="54" rx="14" fill="#121212"/>
    <text x="270" y="1632" fill="#FFFFFF" font-size="26" font-family="Inter, Arial, sans-serif" font-weight="600">Archive_2019.zip</text>
    <text x="270" y="1667" fill="#8C909A" font-size="20" font-family="Inter, Arial, sans-serif">2.8 GB</text>
    <text x="820" y="1653" fill="#7C808A" font-size="20" font-family="Inter, Arial, sans-serif" text-anchor="end">Apr 18</text>
  </g>
  <g>
    <rect x="182" y="1745" width="54" height="54" rx="14" fill="#101826"/>
    <text x="270" y="1765" fill="#FFFFFF" font-size="26" font-family="Inter, Arial, sans-serif" font-weight="600">Mockup_Backup.sketch</text>
    <text x="270" y="1800" fill="#8C909A" font-size="20" font-family="Inter, Arial, sans-serif">82 MB</text>
    <text x="820" y="1786" fill="#7C808A" font-size="20" font-family="Inter, Arial, sans-serif" text-anchor="end">Apr 12</text>
  </g>
  <g>
    <rect x="182" y="1878" width="54" height="54" rx="14" fill="#121212"/>
    <text x="270" y="1898" fill="#FFFFFF" font-size="26" font-family="Inter, Arial, sans-serif" font-weight="600">meeting_capture.wav</text>
    <text x="270" y="1933" fill="#8C909A" font-size="20" font-family="Inter, Arial, sans-serif">48 MB</text>
    <text x="820" y="1919" fill="#7C808A" font-size="20" font-family="Inter, Arial, sans-serif" text-anchor="end">Apr 06</text>
  </g>

  <rect x="150" y="2060" width="780" height="170" rx="40" fill="#060606" stroke="#1D1D22"/>
  <g font-family="Inter, Arial, sans-serif" font-size="20" text-anchor="middle">
    <text x="230" y="2172" fill="#FFFFFF">All Files</text>
    <text x="410" y="2172" fill="#767A84">Media</text>
    <text x="590" y="2172" fill="#4DA3FF">Upload</text>
    <text x="770" y="2172" fill="#767A84">Settings</text>
  </g>
  <circle cx="230" cy="2120" r="18" fill="#F0F0F0"/>
  <rect x="392" y="2102" width="36" height="26" rx="7" fill="#767A84"/>
  <path d="M580 2134V2102M564 2118H596" stroke="#4DA3FF" stroke-width="8" stroke-linecap="round"/>
  <circle cx="770" cy="2118" r="18" stroke="#767A84" stroke-width="5"/>
</svg>
