<svg width="1080" height="2400" viewBox="0 0 1080 2400" fill="none" xmlns="http://www.w3.org/2000/svg">
  <defs>
    <filter id="softShadowL" x="-20%" y="-20%" width="140%" height="140%">
      <feDropShadow dx="0" dy="10" stdDeviation="14" flood-color="#AAB6CF" flood-opacity="0.18"/>
    </filter>
  </defs>
  <rect width="1080" height="2400" fill="#DADCE0"/>
  <rect x="100" y="40" width="880" height="2320" rx="92" fill="#F8F9FA" stroke="#DADCE0" stroke-width="3"/>
  <rect x="420" y="78" width="240" height="30" rx="15" fill="#202124"/>

  <text x="170" y="184" fill="#202124" font-size="42" font-family="Roboto, Arial, sans-serif" font-weight="500">TeleDrive</text>
  <circle cx="865" cy="168" r="26" fill="#1A73E8"/>
  <text x="865" y="177" text-anchor="middle" fill="#FFFFFF" font-size="22" font-family="Roboto, Arial, sans-serif" font-weight="700">S</text>

  <rect x="150" y="225" width="780" height="72" rx="36" fill="#FFFFFF" stroke="#E0E3E7"/>
  <circle cx="200" cy="261" r="15" stroke="#5F6368" stroke-width="4"/>
  <line x1="211" y1="272" x2="224" y2="285" stroke="#5F6368" stroke-width="4" stroke-linecap="round"/>
  <text x="245" y="269" fill="#5F6368" font-size="24" font-family="Roboto, Arial, sans-serif">Search in TeleDrive</text>

  <text x="150" y="360" fill="#202124" font-size="26" font-family="Roboto, Arial, sans-serif" font-weight="500">Categories</text>
  <g filter="url(#softShadowL)">
    <rect x="150" y="392" width="372" height="176" rx="22" fill="#FFFFFF"/>
    <rect x="558" y="392" width="372" height="176" rx="22" fill="#FFFFFF"/>
    <rect x="150" y="594" width="372" height="176" rx="22" fill="#FFFFFF"/>
    <rect x="558" y="594" width="372" height="176" rx="22" fill="#FFFFFF"/>
  </g>
  <g font-family="Roboto, Arial, sans-serif">
    <rect x="182" y="432" width="56" height="56" rx="16" fill="#E8F0FE"/>
    <rect x="191" y="443" width="38" height="28" rx="7" fill="#1A73E8"/>
    <circle cx="204" cy="452" r="5" fill="#FFFFFF"/>
    <path d="M192 470L202 460L209 466L218 457L229 470H192Z" fill="#FFFFFF"/>
    <text x="260" y="456" fill="#202124" font-size="28" font-weight="500">Photos</text>
    <text x="260" y="494" fill="#5F6368" font-size="22">1,284 files</text>

    <rect x="590" y="432" width="56" height="56" rx="16" fill="#F3E8FF"/>
    <rect x="604" y="446" width="28" height="26" rx="6" fill="#A142F4"/>
    <polygon points="617,453 617,466 627,459" fill="#FFFFFF"/>
    <text x="668" y="456" fill="#202124" font-size="28" font-weight="500">Videos</text>
    <text x="668" y="494" fill="#5F6368" font-size="22">318 files</text>

    <rect x="182" y="634" width="56" height="56" rx="16" fill="#E6F4EA"/>
    <path d="M198 646H224V673H198Z" fill="#188038"/>
    <path d="M216 646V656H224" stroke="#FFFFFF" stroke-width="3"/>
    <text x="260" y="658" fill="#202124" font-size="28" font-weight="500">Files</text>
    <text x="260" y="696" fill="#5F6368" font-size="22">642 files</text>

    <rect x="590" y="634" width="56" height="56" rx="16" fill="#FEF7E0"/>
    <path d="M618 649C609 649 602 656 602 665C602 674 609 681 618 681C627 681 634 674 634 665V660" stroke="#F9AB00" stroke-width="6" stroke-linecap="round"/>
    <text x="668" y="658" fill="#202124" font-size="28" font-weight="500">Audio</text>
    <text x="668" y="696" fill="#5F6368" font-size="22">92 files</text>
  </g>

  <text x="150" y="850" fill="#202124" font-size="26" font-family="Roboto, Arial, sans-serif" font-weight="500">All files</text>
  <rect x="150" y="885" width="780" height="64" rx="18" fill="#FFFFFF" stroke="#E0E3E7"/>
  <text x="178" y="927" fill="#5F6368" font-size="20" font-family="Roboto, Arial, sans-serif">Sort by</text>
  <rect x="275" y="899" width="150" height="36" rx="18" fill="#E8F0FE"/>
  <text x="350" y="923" fill="#1A73E8" text-anchor="middle" font-size="18" font-family="Roboto, Arial, sans-serif">Name A-Z</text>
  <rect x="440" y="899" width="150" height="36" rx="18" fill="#FFFFFF" stroke="#DADCE0"/>
  <text x="515" y="923" fill="#5F6368" text-anchor="middle" font-size="18" font-family="Roboto, Arial, sans-serif">Name Z-A</text>
  <rect x="605" y="899" width="90" height="36" rx="18" fill="#FFFFFF" stroke="#DADCE0"/>
  <text x="650" y="923" fill="#5F6368" text-anchor="middle" font-size="18" font-family="Roboto, Arial, sans-serif">Size</text>
  <rect x="710" y="899" width="170" height="36" rx="18" fill="#FFFFFF" stroke="#DADCE0"/>
  <text x="795" y="923" fill="#5F6368" text-anchor="middle" font-size="18" font-family="Roboto, Arial, sans-serif">Created date</text>

  <g font-family="Roboto, Arial, sans-serif">
    <rect x="150" y="980" width="780" height="104" fill="#F8F9FA"/>
    <line x1="150" y1="1084" x2="930" y2="1084" stroke="#E0E3E7"/>
    <circle cx="195" cy="1032" r="22" fill="#E8F0FE"/>
    <text x="245" y="1022" fill="#202124" font-size="24" font-weight="400">Brand_Guidelines.pdf</text>
    <text x="245" y="1057" fill="#5F6368" font-size="20">1.8 MB  •  Apr 29  •  Desktop Sync</text>
    <text x="900" y="1038" text-anchor="end" fill="#5F6368" font-size="28">⋮</text>

    <rect x="150" y="1084" width="780" height="104" fill="#F8F9FA"/>
    <line x1="150" y1="1188" x2="930" y2="1188" stroke="#E0E3E7"/>
    <circle cx="195" cy="1136" r="22" fill="#F3E8FF"/>
    <text x="245" y="1126" fill="#202124" font-size="24" font-weight="400">Launch_Cut.mp4</text>
    <text x="245" y="1161" fill="#5F6368" font-size="20">238 MB  •  Apr 28  •  Camera Uploads</text>
    <text x="900" y="1142" text-anchor="end" fill="#5F6368" font-size="28">⋮</text>

    <rect x="150" y="1188" width="780" height="104" fill="#F8F9FA"/>
    <line x1="150" y1="1292" x2="930" y2="1292" stroke="#E0E3E7"/>
    <circle cx="195" cy="1240" r="22" fill="#E6F4EA"/>
    <text x="245" y="1230" fill="#202124" font-size="24" font-weight="400">Project_Roadmap.xlsx</text>
    <text x="245" y="1265" fill="#5F6368" font-size="20">524 KB  •  Apr 27  •  Shared Folder</text>
    <text x="900" y="1246" text-anchor="end" fill="#5F6368" font-size="28">⋮</text>

    <rect x="150" y="1292" width="780" height="104" fill="#F8F9FA"/>
    <line x1="150" y1="1396" x2="930" y2="1396" stroke="#E0E3E7"/>
    <circle cx="195" cy="1344" r="22" fill="#E8F0FE"/>
    <text x="245" y="1334" fill="#202124" font-size="24" font-weight="400">Vacation_Album.zip</text>
    <text x="245" y="1369" fill="#5F6368" font-size="20">84.2 MB  •  Apr 25  •  Mobile Upload</text>
    <text x="900" y="1350" text-anchor="end" fill="#5F6368" font-size="28">⋮</text>

    <rect x="150" y="1396" width="780" height="104" fill="#F8F9FA"/>
    <line x1="150" y1="1500" x2="930" y2="1500" stroke="#E0E3E7"/>
    <circle cx="195" cy="1448" r="22" fill="#FEF7E0"/>
    <text x="245" y="1438" fill="#202124" font-size="24" font-weight="400">meeting_capture.wav</text>
    <text x="245" y="1473" fill="#5F6368" font-size="20">48 MB  •  Apr 24  •  Synced from Mac</text>
    <text x="900" y="1454" text-anchor="end" fill="#5F6368" font-size="28">⋮</text>
  </g>

  <g filter="url(#softShadowL)">
    <rect x="285" y="1758" width="510" height="134" rx="24" fill="#FFFFFF"/>
  </g>
  <text x="540" y="1806" text-anchor="middle" fill="#202124" font-size="24" font-family="Roboto, Arial, sans-serif" font-weight="500">Upload</text>
  <rect x="315" y="1824" width="210" height="44" rx="22" fill="#1A73E8"/>
  <text x="420" y="1852" text-anchor="middle" fill="#FFFFFF" font-size="18" font-family="Roboto, Arial, sans-serif" font-weight="500">Selected files</text>
  <rect x="555" y="1824" width="210" height="44" rx="22" fill="#F1F3F4"/>
  <text x="660" y="1852" text-anchor="middle" fill="#202124" font-size="18" font-family="Roboto, Arial, sans-serif" font-weight="500">Sync full storage</text>

  <circle cx="540" cy="1945" r="48" fill="#1A73E8" filter="url(#softShadowL)"/>
  <path d="M540 1923V1967M518 1945H562" stroke="#FFFFFF" stroke-width="8" stroke-linecap="round"/>

  <rect x="150" y="2050" width="780" height="150" rx="26" fill="#FFFFFF" stroke="#E0E3E7"/>
  <g font-family="Roboto, Arial, sans-serif" font-size="20" text-anchor="middle">
    <text x="250" y="2160" fill="#1A73E8">All files</text>
    <text x="435" y="2160" fill="#5F6368">Videos</text>
    <text x="635" y="2160" fill="#5F6368">Photos</text>
    <text x="820" y="2160" fill="#5F6368">Files</text>
  </g>
  <path d="M228 2114H272V2146H228Z" fill="#1A73E8"/>
  <polygon points="420,2116 420,2148 448,2132" fill="#5F6368"/>
  <rect x="615" y="2118" width="40" height="28" rx="6" fill="#5F6368"/>
  <path d="M804 2114H836V2148H804Z" fill="#5F6368"/>
</svg>
