<svg width="1080" height="2400" viewBox="0 0 1080 2400" fill="none" xmlns="http://www.w3.org/2000/svg">
  <defs>
    <linearGradient id="bg2" x1="0" y1="0" x2="1" y2="1">
      <stop offset="0%" stop-color="#050507"/>
      <stop offset="55%" stop-color="#120A1E"/>
      <stop offset="100%" stop-color="#1E1032"/>
    </linearGradient>
    <linearGradient id="neon" x1="0" y1="0" x2="1" y2="1">
      <stop offset="0%" stop-color="#49E3FF"/>
      <stop offset="100%" stop-color="#A855F7"/>
    </linearGradient>
    <filter id="neonGlow" x="-40%" y="-40%" width="180%" height="180%">
      <feDropShadow dx="0" dy="0" stdDeviation="18" flood-color="#5CD8FF" flood-opacity="0.45"/>
      <feDropShadow dx="0" dy="0" stdDeviation="24" flood-color="#A855F7" flood-opacity="0.25"/>
    </filter>
    <filter id="softShadow" x="-20%" y="-20%" width="140%" height="140%">
      <feDropShadow dx="0" dy="24" stdDeviation="28" flood-color="#000000" flood-opacity="0.55"/>
    </filter>
  </defs>

  <rect width="1080" height="2400" fill="#111111"/>
  <rect x="100" y="40" width="880" height="2320" rx="92" fill="url(#bg2)" stroke="#35264A" stroke-width="3"/>
  <rect x="420" y="78" width="240" height="30" rx="15" fill="#EEEAFB"/>

  <text x="180" y="196" fill="#F7F7FA" font-size="44" font-family="Inter, Arial, sans-serif" font-weight="700">TeleDrive</text>
  <text x="180" y="242" fill="#C3B9DA" font-size="24" font-family="Inter, Arial, sans-serif">Cloud sync // active</text>

  <g filter="url(#softShadow)">
    <rect x="150" y="300" width="780" height="340" rx="46" fill="#FFFFFF" fill-opacity="0.08" stroke="url(#neon)" stroke-opacity="0.6"/>
  </g>
  <circle cx="300" cy="470" r="118" stroke="#392E52" stroke-width="20"/>
  <circle cx="300" cy="470" r="118" stroke="url(#neon)" stroke-width="16" stroke-dasharray="420 190" filter="url(#neonGlow)"/>
  <circle cx="300" cy="470" r="68" fill="#0F0D19" stroke="#463860"/>
  <circle cx="300" cy="470" r="8" fill="#57E8FF" filter="url(#neonGlow)"/>
  <circle cx="300" cy="470" r="44" stroke="#4ADFFF" stroke-opacity="0.35"/>
  <path d="M300 352V588M182 470H418M216 386L384 554M384 386L216 554" stroke="#59DFFF" stroke-opacity="0.12" stroke-width="2"/>
  <text x="475" y="400" fill="#F7F7FA" font-size="30" font-family="Inter, Arial, sans-serif" font-weight="600">Storage Radar</text>
  <text x="475" y="445" fill="#B8B2CB" font-size="22" font-family="Inter, Arial, sans-serif">142 GB synced securely</text>
  <rect x="475" y="480" width="220" height="52" rx="26" fill="#5B1E86" fill-opacity="0.25" stroke="#A855F7" filter="url(#neonGlow)"/>
  <text x="524" y="514" fill="#F8F3FF" font-size="22" font-family="Inter, Arial, sans-serif" font-weight="600">Syncing Live</text>
  <text x="475" y="570" fill="#69E2FF" font-size="22" font-family="Inter, Arial, sans-serif">5 devices connected</text>

  <text x="150" y="720" fill="#F7F7FA" font-size="30" font-family="Inter, Arial, sans-serif" font-weight="600">Collections</text>

  <g filter="url(#softShadow)">
    <rect x="150" y="770" width="250" height="220" rx="36" fill="#FFFFFF" fill-opacity="0.10" stroke="#62E3FF" stroke-opacity="0.7"/>
    <rect x="430" y="770" width="250" height="220" rx="36" fill="#FFFFFF" fill-opacity="0.10" stroke="#A855F7" stroke-opacity="0.7"/>
    <rect x="710" y="770" width="250" height="220" rx="36" fill="#FFFFFF" fill-opacity="0.10" stroke="#6C63FF" stroke-opacity="0.7"/>
  </g>
  <g filter="url(#neonGlow)">
    <circle cx="220" cy="850" r="34" fill="#51E4FF" fill-opacity="0.18" stroke="#51E4FF"/>
    <circle cx="500" cy="850" r="34" fill="#B55CFF" fill-opacity="0.18" stroke="#B55CFF"/>
    <circle cx="780" cy="850" r="34" fill="#7B74FF" fill-opacity="0.18" stroke="#7B74FF"/>
  </g>
  <text x="190" y="925" fill="#F7F7FA" font-size="28" font-family="Inter, Arial, sans-serif" font-weight="600">Images</text>
  <text x="190" y="962" fill="#B8B2CB" font-size="20" font-family="Inter, Arial, sans-serif">1,284 items</text>
  <text x="470" y="925" fill="#F7F7FA" font-size="28" font-family="Inter, Arial, sans-serif" font-weight="600">Videos</text>
  <text x="470" y="962" fill="#B8B2CB" font-size="20" font-family="Inter, Arial, sans-serif">318 items</text>
  <text x="750" y="925" fill="#F7F7FA" font-size="28" font-family="Inter, Arial, sans-serif" font-weight="600">Documents</text>
  <text x="750" y="962" fill="#B8B2CB" font-size="20" font-family="Inter, Arial, sans-serif">642 items</text>

  <text x="150" y="1080" fill="#F7F7FA" font-size="30" font-family="Inter, Arial, sans-serif" font-weight="600">Recent transfers</text>

  <g filter="url(#softShadow)">
    <rect x="150" y="1135" width="780" height="122" rx="28" fill="#FFFFFF" fill-opacity="0.08" stroke="#5CD8FF" stroke-opacity="0.35"/>
    <rect x="150" y="1285" width="780" height="122" rx="28" fill="#FFFFFF" fill-opacity="0.08" stroke="#B55CFF" stroke-opacity="0.35"/>
    <rect x="150" y="1435" width="780" height="122" rx="28" fill="#FFFFFF" fill-opacity="0.08" stroke="#5CD8FF" stroke-opacity="0.35"/>
    <rect x="150" y="1585" width="780" height="122" rx="28" fill="#FFFFFF" fill-opacity="0.08" stroke="#B55CFF" stroke-opacity="0.35"/>
  </g>
  <g>
    <rect x="182" y="1164" width="70" height="66" rx="20" fill="#53E1FF" fill-opacity="0.15" stroke="#53E1FF"/>
    <text x="280" y="1188" fill="#F7F7FA" font-size="26" font-family="Inter, Arial, sans-serif" font-weight="600">Moonlight_Clip.mp4</text>
    <text x="280" y="1223" fill="#B8B2CB" font-size="20" font-family="Inter, Arial, sans-serif">412 MB  •  Apr 28  •  swipe to pin</text>
  </g>
  <g>
    <rect x="182" y="1314" width="70" height="66" rx="20" fill="#B55CFF" fill-opacity="0.15" stroke="#B55CFF"/>
    <text x="280" y="1338" fill="#F7F7FA" font-size="26" font-family="Inter, Arial, sans-serif" font-weight="600">Client_Deck.pdf</text>
    <text x="280" y="1373" fill="#B8B2CB" font-size="20" font-family="Inter, Arial, sans-serif">2.1 MB  •  Apr 27  •  shared link</text>
  </g>
  <g>
    <rect x="182" y="1464" width="70" height="66" rx="20" fill="#53E1FF" fill-opacity="0.15" stroke="#53E1FF"/>
    <text x="280" y="1488" fill="#F7F7FA" font-size="26" font-family="Inter, Arial, sans-serif" font-weight="600">Archive_Images.tar</text>
    <text x="280" y="1523" fill="#B8B2CB" font-size="20" font-family="Inter, Arial, sans-serif">1.4 GB  •  Apr 26  •  encrypted</text>
  </g>
  <g>
    <rect x="182" y="1614" width="70" height="66" rx="20" fill="#B55CFF" fill-opacity="0.15" stroke="#B55CFF"/>
    <text x="280" y="1638" fill="#F7F7FA" font-size="26" font-family="Inter, Arial, sans-serif" font-weight="600">Ambient_Set.flac</text>
    <text x="280" y="1673" fill="#B8B2CB" font-size="20" font-family="Inter, Arial, sans-serif">88 MB  •  Apr 24  •  offline saved</text>
  </g>

  <rect x="150" y="2055" width="780" height="175" rx="42" fill="#FFFFFF" fill-opacity="0.08" stroke="url(#neon)" stroke-opacity="0.55" filter="url(#softShadow)"/>
  <g font-family="Inter, Arial, sans-serif" font-size="20" text-anchor="middle">
    <text x="230" y="2170" fill="#7CF0FF">All Files</text>
    <text x="390" y="2170" fill="#B8B2CB">Images</text>
    <text x="540" y="2170" fill="#B8B2CB">Videos</text>
    <text x="700" y="2170" fill="#B8B2CB">Docs</text>
    <text x="850" y="2170" fill="#B8B2CB">Settings</text>
  </g>
  <circle cx="230" cy="2118" r="24" fill="#53E1FF" fill-opacity="0.14" stroke="#53E1FF" filter="url(#neonGlow)"/>
  <circle cx="390" cy="2118" r="18" fill="#B8B2CB"/>
  <polygon points="525,2098 525,2138 560,2118" fill="#B8B2CB"/>
  <rect x="685" y="2098" width="30" height="36" rx="4" fill="#B8B2CB"/>
  <circle cx="850" cy="2118" r="18" stroke="#B8B2CB" stroke-width="5"/>
</svg>
