<svg width="1080" height="2400" viewBox="0 0 1080 2400" fill="none" xmlns="http://www.w3.org/2000/svg">
  <defs>
    <linearGradient id="hybridDarkBg" x1="0" y1="0" x2="0" y2="1">
      <stop offset="0%" stop-color="#11131B"/>
      <stop offset="100%" stop-color="#0B0B0F"/>
    </linearGradient>
    <linearGradient id="hybridAccent" x1="0" y1="0" x2="1" y2="1">
      <stop offset="0%" stop-color="#63D5FF"/>
      <stop offset="100%" stop-color="#8E68FF"/>
    </linearGradient>
    <filter id="shadowDark" x="-20%" y="-20%" width="140%" height="140%">
      <feDropShadow dx="0" dy="22" stdDeviation="26" flood-color="#000000" flood-opacity="0.45"/>
    </filter>
    <filter id="glowDark" x="-40%" y="-40%" width="180%" height="180%">
      <feDropShadow dx="0" dy="0" stdDeviation="12" flood-color="#63D5FF" flood-opacity="0.28"/>
      <feDropShadow dx="0" dy="0" stdDeviation="16" flood-color="#8E68FF" flood-opacity="0.22"/>
    </filter>
  </defs>

  <rect width="1080" height="2400" fill="#161616"/>
  <rect x="100" y="40" width="880" height="2320" rx="92" fill="url(#hybridDarkBg)" stroke="#222635" stroke-width="4"/>
  <rect x="420" y="78" width="240" height="30" rx="15" fill="#F5F5F6"/>

  <text x="170" y="190" fill="#F7F7FA" font-size="44" font-family="Inter, Arial, sans-serif" font-weight="700">TeleDrive</text>
  <text x="170" y="236" fill="#8F95AB" font-size="24" font-family="Inter, Arial, sans-serif">All files</text>

  <rect x="150" y="280" width="780" height="82" rx="26" fill="#121520" stroke="#242838"/>
  <text x="182" y="332" fill="#F7F7FA" font-size="24" font-family="Inter, Arial, sans-serif" font-weight="600">Sort:</text>
  <rect x="265" y="298" width="150" height="46" rx="23" fill="url(#hybridAccent)" filter="url(#glowDark)"/>
  <text x="340" y="328" fill="#FFFFFF" font-size="20" font-family="Inter, Arial, sans-serif" text-anchor="middle" font-weight="700">Name A-Z</text>
  <rect x="430" y="298" width="170" height="46" rx="23" fill="#191E2B" stroke="#2B3143"/>
  <text x="515" y="328" fill="#AAB0C2" font-size="20" font-family="Inter, Arial, sans-serif" text-anchor="middle">Name Z-A</text>
  <rect x="615" y="298" width="110" height="46" rx="23" fill="#191E2B" stroke="#2B3143"/>
  <text x="670" y="328" fill="#AAB0C2" font-size="20" font-family="Inter, Arial, sans-serif" text-anchor="middle">Size</text>
  <rect x="740" y="298" width="170" height="46" rx="23" fill="#191E2B" stroke="#2B3143"/>
  <text x="825" y="328" fill="#AAB0C2" font-size="20" font-family="Inter, Arial, sans-serif" text-anchor="middle">Created</text>

  <text x="150" y="430" fill="#F7F7FA" font-size="30" font-family="Inter, Arial, sans-serif" font-weight="600">Categories</text>

  <g filter="url(#shadowDark)">
    <rect x="150" y="480" width="360" height="210" rx="34" fill="#121520" stroke="#242838"/>
    <rect x="570" y="480" width="360" height="210" rx="34" fill="#121520" stroke="#242838"/>
    <rect x="150" y="730" width="360" height="210" rx="34" fill="#121520" stroke="#242838"/>
    <rect x="570" y="730" width="360" height="210" rx="34" fill="#121520" stroke="#242838"/>
  </g>

  <g>
    <rect x="188" y="532" width="72" height="72" rx="22" fill="#16233D"/>
    <rect x="196" y="544" width="56" height="40" rx="10" fill="#6EA9FF"/>
    <circle cx="214" cy="557" r="7" fill="#D7EEFF"/>
    <path d="M198 580L214 564L224 574L238 558L252 580H198Z" fill="#D7EEFF"/>
    <text x="188" y="638" fill="#F7F7FA" font-size="28" font-family="Inter, Arial, sans-serif" font-weight="600">Photos</text>
    <text x="188" y="676" fill="#8F95AB" font-size="22" font-family="Inter, Arial, sans-serif">1,284 files</text>
  </g>
  <g>
    <rect x="608" y="532" width="72" height="72" rx="22" fill="#1E1C3B"/>
    <rect x="624" y="550" width="40" height="36" rx="8" fill="#A07CFF"/>
    <polygon points="642,561 642,575 654,568" fill="#F7F4FF"/>
    <text x="608" y="638" fill="#F7F7FA" font-size="28" font-family="Inter, Arial, sans-serif" font-weight="600">Videos</text>
    <text x="608" y="676" fill="#8F95AB" font-size="22" font-family="Inter, Arial, sans-serif">318 files</text>
  </g>
  <g>
    <rect x="188" y="782" width="72" height="72" rx="22" fill="#18202C"/>
    <path d="M210 800H248V838H210Z" fill="#90C4FF"/>
    <path d="M238 800V812H248" stroke="#DCEEFF" stroke-width="4"/>
    <text x="188" y="888" fill="#F7F7FA" font-size="28" font-family="Inter, Arial, sans-serif" font-weight="600">Files</text>
    <text x="188" y="926" fill="#8F95AB" font-size="22" font-family="Inter, Arial, sans-serif">642 files</text>
  </g>
  <g>
    <rect x="608" y="782" width="72" height="72" rx="22" fill="#211C2E"/>
    <path d="M636 804C625 804 616 813 616 824C616 835 625 844 636 844C647 844 656 835 656 824V818" stroke="#C3AEFF" stroke-width="7" stroke-linecap="round"/>
    <text x="608" y="888" fill="#F7F7FA" font-size="28" font-family="Inter, Arial, sans-serif" font-weight="600">Audio</text>
    <text x="608" y="926" fill="#8F95AB" font-size="22" font-family="Inter, Arial, sans-serif">92 files</text>
  </g>

  <text x="150" y="1010" fill="#F7F7FA" font-size="30" font-family="Inter, Arial, sans-serif" font-weight="600">Recent files</text>

  <g filter="url(#shadowDark)">
    <rect x="150" y="1060" width="780" height="120" rx="28" fill="#121520" stroke="#242838"/>
    <rect x="150" y="1205" width="780" height="120" rx="28" fill="#121520" stroke="#242838"/>
    <rect x="150" y="1350" width="780" height="120" rx="28" fill="#121520" stroke="#242838"/>
    <rect x="150" y="1495" width="780" height="120" rx="28" fill="#121520" stroke="#242838"/>
    <rect x="150" y="1640" width="780" height="120" rx="28" fill="#121520" stroke="#242838"/>
  </g>
  <g font-family="Inter, Arial, sans-serif">
    <rect x="182" y="1090" width="58" height="58" rx="18" fill="#172A45"/>
    <text x="275" y="1115" fill="#F7F7FA" font-size="26" font-weight="600">Design_System.fig</text>
    <text x="275" y="1150" fill="#8F95AB" font-size="20">12.4 MB  •  Apr 29  •  Desktop Sync</text>

    <rect x="182" y="1235" width="58" height="58" rx="18" fill="#231A38"/>
    <text x="275" y="1260" fill="#F7F7FA" font-size="26" font-weight="600">Launch_Cut.mp4</text>
    <text x="275" y="1295" fill="#8F95AB" font-size="20">238 MB  •  Apr 28  •  Camera Uploads</text>

    <rect x="182" y="1380" width="58" height="58" rx="18" fill="#142838"/>
    <text x="275" y="1405" fill="#F7F7FA" font-size="26" font-weight="600">Invoice_Q2.pdf</text>
    <text x="275" y="1440" fill="#8F95AB" font-size="20">1.8 MB  •  Apr 26  •  Gmail Import</text>

    <rect x="182" y="1525" width="58" height="58" rx="18" fill="#172A45"/>
    <text x="275" y="1550" fill="#F7F7FA" font-size="26" font-weight="600">Vacation_Album.zip</text>
    <text x="275" y="1585" fill="#8F95AB" font-size="20">84.2 MB  •  Apr 25  •  Shared Folder</text>

    <rect x="182" y="1670" width="58" height="58" rx="18" fill="#231E2D"/>
    <text x="275" y="1695" fill="#F7F7FA" font-size="26" font-weight="600">Podcast_Master.wav</text>
    <text x="275" y="1730" fill="#8F95AB" font-size="20">96 MB  •  Apr 24  •  Studio Mac</text>
  </g>

  <g filter="url(#glowDark)">
    <rect x="300" y="1880" width="480" height="150" rx="34" fill="#111521" stroke="#2C3243"/>
  </g>
  <text x="540" y="1928" fill="#F7F7FA" font-size="24" font-family="Inter, Arial, sans-serif" text-anchor="middle" font-weight="700">Upload</text>
  <rect x="330" y="1950" width="190" height="54" rx="27" fill="url(#hybridAccent)"/>
  <text x="425" y="1984" fill="#FFFFFF" font-size="20" font-family="Inter, Arial, sans-serif" text-anchor="middle" font-weight="700">Selected Files</text>
  <rect x="560" y="1950" width="190" height="54" rx="27" fill="#1B2030" stroke="#343B4E"/>
  <text x="655" y="1984" fill="#D7DBE7" font-size="20" font-family="Inter, Arial, sans-serif" text-anchor="middle" font-weight="600">Sync Full Storage</text>

  <circle cx="540" cy="2050" r="54" fill="url(#hybridAccent)" filter="url(#glowDark)"/>
  <path d="M540 2025V2075M515 2050H565" stroke="#FFFFFF" stroke-width="10" stroke-linecap="round"/>

  <rect x="150" y="2090" width="780" height="140" rx="40" fill="#10131C" stroke="#222635"/>
  <g font-family="Inter, Arial, sans-serif" font-size="20" text-anchor="middle">
    <text x="250" y="2180" fill="#7CF0FF">All Files</text>
    <text x="435" y="2180" fill="#8F95AB">Videos</text>
    <text x="635" y="2180" fill="#8F95AB">Photos</text>
    <text x="820" y="2180" fill="#8F95AB">Files</text>
  </g>
  <circle cx="250" cy="2140" r="22" fill="url(#hybridAccent)"/>
  <polygon points="420,2122 420,2158 452,2140" fill="#7A8096"/>
  <rect x="617" y="2120" width="36" height="28" rx="8" fill="#7A8096"/>
  <path d="M804 2118H836V2156H804Z" fill="#7A8096"/>
</svg>
